<svg xmlns="http://www.w3.org/2000/svg" xmlns:xlink="http://www.w3.org/1999/xlink" width="200" zoomAndPan="magnify" viewBox="0 0 150 52.499999" height="70" preserveAspectRatio="xMidYMid meet" version="1.0"><defs><g/><clipPath id="c3516dc952"><path d="M 0.707031 17 L 9 17 L 9 41 L 0.707031 41 Z M 0.707031 17 " clip-rule="nonzero"/></clipPath></defs><g clip-path="url(#c3516dc952)"><g fill="#ffffff" fill-opacity="1"><g transform="translate(0.73657, 36.705223)"><g><path d="M 8.109375 -7.5625 C 8.109375 -5.238281 7.914062 -3.441406 7.53125 -2.171875 C 6.84375 0.0859375 5.738281 1.859375 4.21875 3.140625 C 4.039062 3.296875 3.894531 3.375 3.78125 3.375 C 3.6875 3.375 3.585938 3.3125 3.484375 3.1875 C 3.160156 2.8125 2.65625 2.238281 1.96875 1.46875 C 1.5625 1.132812 0.96875 0.617188 0.1875 -0.078125 C 0.09375 -0.191406 0.046875 -0.285156 0.046875 -0.359375 C 0.046875 -0.441406 0.09375 -0.53125 0.1875 -0.625 C 0.875 -1.226562 1.3125 -1.640625 1.5 -1.859375 C 1.863281 -2.296875 2.144531 -2.847656 2.34375 -3.515625 C 2.601562 -4.410156 2.734375 -5.890625 2.734375 -7.953125 C 2.734375 -12.722656 2.566406 -16.421875 2.234375 -19.046875 C 2.210938 -19.140625 2.203125 -19.207031 2.203125 -19.25 C 2.203125 -19.414062 2.347656 -19.5 2.640625 -19.5 C 2.941406 -19.5 3.378906 -19.484375 3.953125 -19.453125 C 4.535156 -19.429688 4.976562 -19.421875 5.28125 -19.421875 C 5.550781 -19.421875 5.960938 -19.429688 6.515625 -19.453125 C 7.066406 -19.484375 7.476562 -19.5 7.75 -19.5 C 8.019531 -19.5 8.15625 -19.378906 8.15625 -19.140625 C 8.15625 -17.859375 8.144531 -15.929688 8.125 -13.359375 C 8.113281 -10.785156 8.109375 -8.851562 8.109375 -7.5625 Z M 8.109375 -7.5625 "/></g></g></g></g><g fill="#ffffff" fill-opacity="1"><g transform="translate(10.341897, 36.705223)"><g><path d="M 17.90625 -6.84375 C 17.90625 -4.46875 17.625 -2.847656 17.0625 -1.984375 C 16.019531 -0.410156 13.421875 0.375 9.265625 0.375 C 7.390625 0.375 5.945312 0.226562 4.9375 -0.0625 C 3.320312 -0.519531 2.273438 -1.40625 1.796875 -2.71875 C 1.554688 -3.351562 1.4375 -4.492188 1.4375 -6.140625 C 1.4375 -6.523438 1.445312 -7.09375 1.46875 -7.84375 C 1.5 -8.59375 1.515625 -9.15625 1.515625 -9.53125 C 1.515625 -10.601562 1.460938 -12.210938 1.359375 -14.359375 C 1.265625 -16.515625 1.21875 -18.128906 1.21875 -19.203125 C 1.21875 -19.421875 1.3125 -19.53125 1.5 -19.53125 C 2.070312 -19.53125 2.929688 -19.503906 4.078125 -19.453125 C 5.222656 -19.410156 6.078125 -19.390625 6.640625 -19.390625 C 6.867188 -19.390625 6.984375 -19.289062 6.984375 -19.09375 C 6.984375 -17.863281 6.941406 -16.023438 6.859375 -13.578125 C 6.785156 -11.128906 6.75 -9.296875 6.75 -8.078125 C 6.75 -6.617188 6.90625 -5.632812 7.21875 -5.125 C 7.625 -4.425781 8.476562 -4.078125 9.78125 -4.078125 C 11.675781 -4.078125 12.625 -5 12.625 -6.84375 C 12.625 -8.195312 12.59375 -10.21875 12.53125 -12.90625 C 12.46875 -15.59375 12.4375 -17.613281 12.4375 -18.96875 C 12.4375 -19.25 12.550781 -19.390625 12.78125 -19.390625 C 13.332031 -19.390625 14.160156 -19.410156 15.265625 -19.453125 C 16.367188 -19.503906 17.191406 -19.53125 17.734375 -19.53125 C 18.003906 -19.53125 18.140625 -19.421875 18.140625 -19.203125 C 18.140625 -18.128906 18.09375 -16.515625 18 -14.359375 C 17.914062 -12.210938 17.875 -10.601562 17.875 -9.53125 C 17.875 -9.226562 17.878906 -8.773438 17.890625 -8.171875 C 17.898438 -7.578125 17.90625 -7.132812 17.90625 -6.84375 Z M 17.90625 -6.84375 "/></g></g></g><g fill="#ffffff" fill-opacity="1"><g transform="translate(29.705682, 36.705223)"><g><path d="M 11.125 -10.71875 C 11.125 -10.4375 11.0625 -10.0625 10.9375 -9.59375 C 10.820312 -9.21875 10.710938 -8.84375 10.609375 -8.46875 C 10.566406 -8 10.476562 -7.328125 10.34375 -6.453125 C 10.3125 -6.316406 10.203125 -6.25 10.015625 -6.25 C 9.660156 -6.25 9.128906 -6.253906 8.421875 -6.265625 C 7.710938 -6.273438 7.175781 -6.28125 6.8125 -6.28125 C 5.832031 -6.28125 4.519531 -6.191406 2.875 -6.015625 C 2.789062 -6.003906 2.539062 -5.96875 2.125 -5.90625 C 1.800781 -5.84375 1.546875 -5.8125 1.359375 -5.8125 C 1.117188 -5.8125 1 -6.039062 1 -6.5 C 1 -6.738281 1.15625 -7.410156 1.46875 -8.515625 C 1.78125 -9.566406 2.003906 -10.242188 2.140625 -10.546875 C 2.203125 -10.703125 2.320312 -10.78125 2.5 -10.78125 C 2.863281 -10.78125 3.40625 -10.757812 4.125 -10.71875 C 4.851562 -10.6875 5.398438 -10.671875 5.765625 -10.671875 C 6.523438 -10.671875 7.78125 -10.78125 9.53125 -11 C 10.457031 -11.125 10.890625 -11.1875 10.828125 -11.1875 C 11.023438 -11.1875 11.125 -11.03125 11.125 -10.71875 Z M 11.125 -10.71875 "/></g></g></g><g fill="#ffffff" fill-opacity="1"><g transform="translate(41.816747, 36.705223)"><g><path d="M 8.109375 -7.5625 C 8.109375 -5.238281 7.914062 -3.441406 7.53125 -2.171875 C 6.84375 0.0859375 5.738281 1.859375 4.21875 3.140625 C 4.039062 3.296875 3.894531 3.375 3.78125 3.375 C 3.6875 3.375 3.585938 3.3125 3.484375 3.1875 C 3.160156 2.8125 2.65625 2.238281 1.96875 1.46875 C 1.5625 1.132812 0.96875 0.617188 0.1875 -0.078125 C 0.09375 -0.191406 0.046875 -0.285156 0.046875 -0.359375 C 0.046875 -0.441406 0.09375 -0.53125 0.1875 -0.625 C 0.875 -1.226562 1.3125 -1.640625 1.5 -1.859375 C 1.863281 -2.296875 2.144531 -2.847656 2.34375 -3.515625 C 2.601562 -4.410156 2.734375 -5.890625 2.734375 -7.953125 C 2.734375 -12.722656 2.566406 -16.421875 2.234375 -19.046875 C 2.210938 -19.140625 2.203125 -19.207031 2.203125 -19.25 C 2.203125 -19.414062 2.347656 -19.5 2.640625 -19.5 C 2.941406 -19.5 3.378906 -19.484375 3.953125 -19.453125 C 4.535156 -19.429688 4.976562 -19.421875 5.28125 -19.421875 C 5.550781 -19.421875 5.960938 -19.429688 6.515625 -19.453125 C 7.066406 -19.484375 7.476562 -19.5 7.75 -19.5 C 8.019531 -19.5 8.15625 -19.378906 8.15625 -19.140625 C 8.15625 -17.859375 8.144531 -15.929688 8.125 -13.359375 C 8.113281 -10.785156 8.109375 -8.851562 8.109375 -7.5625 Z M 8.109375 -7.5625 "/></g></g></g><g fill="#ffffff" fill-opacity="1"><g transform="translate(51.422075, 36.705223)"><g><path d="M 17.90625 -6.84375 C 17.90625 -4.46875 17.625 -2.847656 17.0625 -1.984375 C 16.019531 -0.410156 13.421875 0.375 9.265625 0.375 C 7.390625 0.375 5.945312 0.226562 4.9375 -0.0625 C 3.320312 -0.519531 2.273438 -1.40625 1.796875 -2.71875 C 1.554688 -3.351562 1.4375 -4.492188 1.4375 -6.140625 C 1.4375 -6.523438 1.445312 -7.09375 1.46875 -7.84375 C 1.5 -8.59375 1.515625 -9.15625 1.515625 -9.53125 C 1.515625 -10.601562 1.460938 -12.210938 1.359375 -14.359375 C 1.265625 -16.515625 1.21875 -18.128906 1.21875 -19.203125 C 1.21875 -19.421875 1.3125 -19.53125 1.5 -19.53125 C 2.070312 -19.53125 2.929688 -19.503906 4.078125 -19.453125 C 5.222656 -19.410156 6.078125 -19.390625 6.640625 -19.390625 C 6.867188 -19.390625 6.984375 -19.289062 6.984375 -19.09375 C 6.984375 -17.863281 6.941406 -16.023438 6.859375 -13.578125 C 6.785156 -11.128906 6.75 -9.296875 6.75 -8.078125 C 6.75 -6.617188 6.90625 -5.632812 7.21875 -5.125 C 7.625 -4.425781 8.476562 -4.078125 9.78125 -4.078125 C 11.675781 -4.078125 12.625 -5 12.625 -6.84375 C 12.625 -8.195312 12.59375 -10.21875 12.53125 -12.90625 C 12.46875 -15.59375 12.4375 -17.613281 12.4375 -18.96875 C 12.4375 -19.25 12.550781 -19.390625 12.78125 -19.390625 C 13.332031 -19.390625 14.160156 -19.410156 15.265625 -19.453125 C 16.367188 -19.503906 17.191406 -19.53125 17.734375 -19.53125 C 18.003906 -19.53125 18.140625 -19.421875 18.140625 -19.203125 C 18.140625 -18.128906 18.09375 -16.515625 18 -14.359375 C 17.914062 -12.210938 17.875 -10.601562 17.875 -9.53125 C 17.875 -9.226562 17.878906 -8.773438 17.890625 -8.171875 C 17.898438 -7.578125 17.90625 -7.132812 17.90625 -6.84375 Z M 17.90625 -6.84375 "/></g></g></g><g fill="#ffffff" fill-opacity="1"><g transform="translate(70.785859, 36.705223)"><g/></g></g><g fill="#ffffff" fill-opacity="1"><g transform="translate(77.913291, 36.705223)"><g><path d="M 8.109375 -7.5625 C 8.109375 -5.238281 7.914062 -3.441406 7.53125 -2.171875 C 6.84375 0.0859375 5.738281 1.859375 4.21875 3.140625 C 4.039062 3.296875 3.894531 3.375 3.78125 3.375 C 3.6875 3.375 3.585938 3.3125 3.484375 3.1875 C 3.160156 2.8125 2.65625 2.238281 1.96875 1.46875 C 1.5625 1.132812 0.96875 0.617188 0.1875 -0.078125 C 0.09375 -0.191406 0.046875 -0.285156 0.046875 -0.359375 C 0.046875 -0.441406 0.09375 -0.53125 0.1875 -0.625 C 0.875 -1.226562 1.3125 -1.640625 1.5 -1.859375 C 1.863281 -2.296875 2.144531 -2.847656 2.34375 -3.515625 C 2.601562 -4.410156 2.734375 -5.890625 2.734375 -7.953125 C 2.734375 -12.722656 2.566406 -16.421875 2.234375 -19.046875 C 2.210938 -19.140625 2.203125 -19.207031 2.203125 -19.25 C 2.203125 -19.414062 2.347656 -19.5 2.640625 -19.5 C 2.941406 -19.5 3.378906 -19.484375 3.953125 -19.453125 C 4.535156 -19.429688 4.976562 -19.421875 5.28125 -19.421875 C 5.550781 -19.421875 5.960938 -19.429688 6.515625 -19.453125 C 7.066406 -19.484375 7.476562 -19.5 7.75 -19.5 C 8.019531 -19.5 8.15625 -19.378906 8.15625 -19.140625 C 8.15625 -17.859375 8.144531 -15.929688 8.125 -13.359375 C 8.113281 -10.785156 8.109375 -8.851562 8.109375 -7.5625 Z M 8.109375 -7.5625 "/></g></g></g><g fill="#ffffff" fill-opacity="1"><g transform="translate(87.518619, 36.705223)"><g><path d="M 17.90625 -6.84375 C 17.90625 -4.46875 17.625 -2.847656 17.0625 -1.984375 C 16.019531 -0.410156 13.421875 0.375 9.265625 0.375 C 7.390625 0.375 5.945312 0.226562 4.9375 -0.0625 C 3.320312 -0.519531 2.273438 -1.40625 1.796875 -2.71875 C 1.554688 -3.351562 1.4375 -4.492188 1.4375 -6.140625 C 1.4375 -6.523438 1.445312 -7.09375 1.46875 -7.84375 C 1.5 -8.59375 1.515625 -9.15625 1.515625 -9.53125 C 1.515625 -10.601562 1.460938 -12.210938 1.359375 -14.359375 C 1.265625 -16.515625 1.21875 -18.128906 1.21875 -19.203125 C 1.21875 -19.421875 1.3125 -19.53125 1.5 -19.53125 C 2.070312 -19.53125 2.929688 -19.503906 4.078125 -19.453125 C 5.222656 -19.410156 6.078125 -19.390625 6.640625 -19.390625 C 6.867188 -19.390625 6.984375 -19.289062 6.984375 -19.09375 C 6.984375 -17.863281 6.941406 -16.023438 6.859375 -13.578125 C 6.785156 -11.128906 6.75 -9.296875 6.75 -8.078125 C 6.75 -6.617188 6.90625 -5.632812 7.21875 -5.125 C 7.625 -4.425781 8.476562 -4.078125 9.78125 -4.078125 C 11.675781 -4.078125 12.625 -5 12.625 -6.84375 C 12.625 -8.195312 12.59375 -10.21875 12.53125 -12.90625 C 12.46875 -15.59375 12.4375 -17.613281 12.4375 -18.96875 C 12.4375 -19.25 12.550781 -19.390625 12.78125 -19.390625 C 13.332031 -19.390625 14.160156 -19.410156 15.265625 -19.453125 C 16.367188 -19.503906 17.191406 -19.53125 17.734375 -19.53125 C 18.003906 -19.53125 18.140625 -19.421875 18.140625 -19.203125 C 18.140625 -18.128906 18.09375 -16.515625 18 -14.359375 C 17.914062 -12.210938 17.875 -10.601562 17.875 -9.53125 C 17.875 -9.226562 17.878906 -8.773438 17.890625 -8.171875 C 17.898438 -7.578125 17.90625 -7.132812 17.90625 -6.84375 Z M 17.90625 -6.84375 "/></g></g></g><g fill="#ffffff" fill-opacity="1"><g transform="translate(106.882403, 36.705223)"><g><path d="M 6.9375 -10.296875 C 6.9375 -9.191406 6.960938 -7.539062 7.015625 -5.34375 C 7.066406 -3.144531 7.09375 -1.5 7.09375 -0.40625 C 7.09375 -0.21875 7.050781 -0.101562 6.96875 -0.0625 C 6.957031 -0.0507812 6.835938 -0.03125 6.609375 0 C 6.003906 0.0703125 5.195312 0.109375 4.1875 0.109375 C 2.832031 0.109375 1.96875 0.0703125 1.59375 0 C 1.332031 -0.0507812 1.203125 -0.195312 1.203125 -0.4375 C 1.203125 -0.28125 1.242188 -1.09375 1.328125 -2.875 C 1.492188 -6.632812 1.578125 -9.109375 1.578125 -10.296875 C 1.578125 -11.285156 1.539062 -12.769531 1.46875 -14.75 C 1.40625 -16.738281 1.375 -18.234375 1.375 -19.234375 C 1.375 -19.429688 1.484375 -19.53125 1.703125 -19.53125 C 1.984375 -19.53125 2.414062 -19.515625 3 -19.484375 C 3.582031 -19.460938 4.015625 -19.453125 4.296875 -19.453125 C 4.585938 -19.453125 5.015625 -19.460938 5.578125 -19.484375 C 6.140625 -19.515625 6.5625 -19.53125 6.84375 -19.53125 C 7.113281 -19.53125 7.25 -19.429688 7.25 -19.234375 C 7.25 -18.234375 7.195312 -16.738281 7.09375 -14.75 C 6.988281 -12.769531 6.9375 -11.285156 6.9375 -10.296875 Z M 6.9375 -10.296875 "/></g></g></g><g fill="#ffffff" fill-opacity="1"><g transform="translate(115.37407, 36.705223)"><g><path d="M 17.546875 -3.140625 C 17.546875 -2.992188 17.445312 -2.800781 17.25 -2.5625 C 15.539062 -0.53125 13.269531 0.484375 10.4375 0.484375 C 7.539062 0.484375 5.191406 -0.503906 3.390625 -2.484375 C 1.640625 -4.390625 0.765625 -6.800781 0.765625 -9.71875 C 0.765625 -12.539062 1.625 -14.9375 3.34375 -16.90625 C 5.132812 -18.96875 7.410156 -20 10.171875 -20 C 13.179688 -20 15.539062 -19.070312 17.25 -17.21875 C 17.4375 -17.019531 17.53125 -16.84375 17.53125 -16.6875 C 17.53125 -16.507812 17.207031 -15.851562 16.5625 -14.71875 C 15.914062 -13.582031 15.507812 -12.945312 15.34375 -12.8125 C 15.269531 -12.738281 15.175781 -12.703125 15.0625 -12.703125 C 15.019531 -12.703125 14.789062 -12.882812 14.375 -13.25 C 13.875 -13.695312 13.378906 -14.046875 12.890625 -14.296875 C 12.160156 -14.671875 11.398438 -14.859375 10.609375 -14.859375 C 9.242188 -14.859375 8.15625 -14.347656 7.34375 -13.328125 C 6.582031 -12.378906 6.203125 -11.207031 6.203125 -9.8125 C 6.203125 -8.40625 6.582031 -7.222656 7.34375 -6.265625 C 8.15625 -5.222656 9.242188 -4.703125 10.609375 -4.703125 C 11.421875 -4.703125 12.1875 -4.878906 12.90625 -5.234375 C 13.382812 -5.460938 13.867188 -5.785156 14.359375 -6.203125 C 14.765625 -6.554688 14.988281 -6.734375 15.03125 -6.734375 C 15.125 -6.734375 15.21875 -6.679688 15.3125 -6.578125 C 15.457031 -6.410156 15.863281 -5.832031 16.53125 -4.84375 C 17.207031 -3.8125 17.546875 -3.242188 17.546875 -3.140625 Z M 17.546875 -3.140625 "/></g></g></g><g fill="#ffffff" fill-opacity="1"><g transform="translate(133.136966, 36.705223)"><g><path d="M 15.53125 -4.328125 C 15.53125 -3.929688 15.453125 -3.195312 15.296875 -2.125 C 15.128906 -0.96875 14.984375 -0.28125 14.859375 -0.0625 C 14.742188 0.113281 14.585938 0.203125 14.390625 0.203125 C 14.304688 0.203125 14.171875 0.191406 13.984375 0.171875 C 13.304688 0.078125 11.328125 0.03125 8.046875 0.03125 C 7.328125 0.03125 6.265625 0.0234375 4.859375 0.015625 C 3.453125 0.00390625 2.394531 0 1.6875 0 C 1.375 0 1.21875 -0.132812 1.21875 -0.40625 C 1.21875 -1.445312 1.273438 -3.007812 1.390625 -5.09375 C 1.515625 -7.175781 1.578125 -8.738281 1.578125 -9.78125 C 1.578125 -10.832031 1.519531 -12.800781 1.40625 -15.6875 C 1.375 -16.4375 1.320312 -17.546875 1.25 -19.015625 L 1.234375 -19.21875 C 1.222656 -19.425781 1.34375 -19.53125 1.59375 -19.53125 C 2.28125 -19.53125 3.3125 -19.507812 4.6875 -19.46875 C 6.0625 -19.4375 7.09375 -19.421875 7.78125 -19.421875 C 8.457031 -19.421875 9.476562 -19.4375 10.84375 -19.46875 C 12.207031 -19.507812 13.226562 -19.53125 13.90625 -19.53125 C 14.394531 -19.53125 14.675781 -19.347656 14.75 -18.984375 C 14.789062 -18.773438 14.859375 -18.128906 14.953125 -17.046875 C 15.054688 -15.960938 15.109375 -15.304688 15.109375 -15.078125 C 15.109375 -14.878906 15.015625 -14.78125 14.828125 -14.78125 C 14.773438 -14.78125 14.675781 -14.785156 14.53125 -14.796875 C 12.0625 -15.003906 9.84375 -15.109375 7.875 -15.109375 C 7.382812 -15.109375 7.082031 -14.992188 6.96875 -14.765625 C 6.925781 -14.648438 6.90625 -14.289062 6.90625 -13.6875 C 6.90625 -13.050781 7 -12.632812 7.1875 -12.4375 C 7.34375 -12.257812 7.644531 -12.171875 8.09375 -12.171875 C 8.1875 -12.171875 8.363281 -12.175781 8.625 -12.1875 C 8.894531 -12.207031 9.117188 -12.21875 9.296875 -12.21875 C 10.472656 -12.21875 11.65625 -12.25 12.84375 -12.3125 C 12.945312 -12.320312 13.207031 -12.34375 13.625 -12.375 C 13.9375 -12.414062 14.1875 -12.4375 14.375 -12.4375 C 14.59375 -12.4375 14.703125 -12.328125 14.703125 -12.109375 C 14.703125 -12.304688 14.617188 -11.597656 14.453125 -9.984375 C 14.378906 -9.242188 14.34375 -8.5 14.34375 -7.75 C 14.34375 -7.570312 14.207031 -7.484375 13.9375 -7.484375 C 13.9375 -7.484375 13.519531 -7.523438 12.6875 -7.609375 C 12.15625 -7.671875 10.945312 -7.703125 9.0625 -7.703125 L 7.59375 -7.703125 C 7.207031 -7.703125 6.984375 -7.609375 6.921875 -7.421875 C 6.910156 -7.378906 6.90625 -7.09375 6.90625 -6.5625 C 6.90625 -5.851562 6.953125 -5.394531 7.046875 -5.1875 C 7.203125 -4.84375 7.796875 -4.632812 8.828125 -4.5625 C 8.804688 -4.5625 9.484375 -4.5625 10.859375 -4.5625 C 11.347656 -4.5625 12.078125 -4.601562 13.046875 -4.6875 C 14.023438 -4.78125 14.753906 -4.828125 15.234375 -4.828125 C 15.429688 -4.828125 15.53125 -4.660156 15.53125 -4.328125 Z M 15.53125 -4.328125 "/></g></g></g></svg>